<?xml version="1.0" encoding="UTF-8" standalone="no"?>
<svg
   xmlns:dc="http://purl.org/dc/elements/1.1/"
   xmlns:cc="http://creativecommons.org/ns#"
   xmlns:rdf="http://www.w3.org/1999/02/22-rdf-syntax-ns#"
   xmlns:svg="http://www.w3.org/2000/svg"
   xmlns="http://www.w3.org/2000/svg"
   xmlns:sodipodi="http://sodipodi.sourceforge.net/DTD/sodipodi-0.dtd"
   xmlns:inkscape="http://www.inkscape.org/namespaces/inkscape"
   id="svg5717"
   xml:space="preserve"
   viewBox="0 0 32 54.932484"
   version="1.1"
   sodipodi:docname="Medium-Flood-Orange.svg"
   width="32"
   height="54.932484"
   inkscape:version="0.92.1 r15371"><sodipodi:namedview
     pagecolor="#ffffff"
     bordercolor="#666666"
     borderopacity="1"
     objecttolerance="10"
     gridtolerance="10"
     guidetolerance="10"
     inkscape:pageopacity="0"
     inkscape:pageshadow="2"
     inkscape:window-width="1920"
     inkscape:window-height="986"
     id="namedview26"
     showgrid="false"
     inkscape:zoom="7.9479167"
     inkscape:cx="5.1510117"
     inkscape:cy="23.19527"
     inkscape:window-x="-11"
     inkscape:window-y="-11"
     inkscape:window-maximized="1"
     inkscape:current-layer="svg5717" /><metadata
     id="metadata5723"><rdf:RDF><cc:Work
         rdf:about=""><dc:format>image/svg+xml</dc:format><dc:type
           rdf:resource="http://purl.org/dc/dcmitype/StillImage" /><dc:title /></cc:Work></rdf:RDF></metadata><defs
     id="defs5721" /><g
     style="display:inline"
     id="layer2"
     transform="translate(-11.400867,19.363378)" /><g
     id="g39"
     transform="matrix(2.3512296,0,0,2.3512296,-26.806056,-28.698652)"><g
       id="layer1"
       style="display:inline"><g
         id="Icons"
         transform="translate(-5.7941831,-0.11254419)"
         style="fill:#00aad4;fill-opacity:1"><g
           id="g5714"
           style="fill:#00aad4;fill-opacity:1"><ellipse
             cx="23.999981"
             cy="34.73875"
             rx="2.93345"
             ry="0.9429"
             style="fill:#00aad4;fill-opacity:1"
             id="ellipse5706" /><g
             id="g5712"
             style="fill:#00aad4;fill-opacity:1"><path
               d="m 24.00505,12.31835 c -3.7701,0 -6.81,3.05 -6.81,6.81 0,0.14 0.01,0.28 0.0199,0.42 0.03,0.56 0.13,1.12 0.31,1.66 0.1701,0.53 0.4,1.03 0.71,1.5 0.0201,0.03 0.2101,0.3 0.5,0.74 0,0 0,0 0.01,0.01 1.3,1.96 4.73,7.09 4.75,7.12 0.24,0.36 0.7701,0.36 1.0101,0 0.01,-0.02 0.0299,-0.04 0.0399,-0.05 0.07,-0.11 5.11,-7.66 5.2701,-7.89 0.0399,-0.07 0.0899,-0.14 0.13,-0.21 0.2699,-0.46 0.4699,-0.95 0.6099,-1.46 0.17,-0.6 0.25,-1.22 0.25,-1.84 0,-3.76 -3.0499,-6.81 -6.7999,-6.81 z m 0.1699,10.26 c -1.5,0.09 -2.7899,-1.05 -2.89,-2.55 -0.0899,-1.5 1.0501,-2.79 2.5401,-2.88 1.5,-0.1 2.8,1.04 2.8899,2.54 0.09,1.5 -1.04,2.79 -2.54,2.89 z"
               style="fill:#00aad4;fill-opacity:1"
               id="path5708"
               inkscape:connector-curvature="0" /><path
               d="m 18.55295,16.72375 c 0,0 1.5527,-3.7647 5.447,-3.4889 0,0 1.1516,-0.0063 1.1512,0.5481 -4e-4,0.6544 -1.1512,0.4563 -1.1512,0.4563 0,0 -3.3915,-0.4118 -5.447,2.4845 z"
               style="fill:#00aad4;fill-opacity:1"
               id="path5710"
               inkscape:connector-curvature="0" /></g></g></g></g><g
       id="layer3"
       style="display:inline"><path
         style="display:inline;opacity:0.30800003;fill:#f8f8f8;fill-opacity:1;stroke:#000000;stroke-width:0.01001771;stroke-linecap:butt;stroke-linejoin:miter;stroke-miterlimit:4;stroke-dasharray:none;stroke-opacity:1"
         d="m 12.755085,16.623854 c 0,0 1.118187,-3.02122 4.556499,-3.486016 0.01137,-0.0076 2.113888,-0.159023 2.043843,0.528481 0.0076,0.01893 0.08935,0.401112 -0.553924,0.490278 0.01894,-0.01138 -0.293054,0.01893 -0.553963,-0.01138 -0.26125,-0.03029 -0.789542,-0.09541 -1.591806,0.04468 0.03029,0.01894 -1.267063,0.241942 -2.062965,0.751301 0.01138,-0.01137 -0.956628,0.439318 -1.837684,1.684115 z"
         id="path53"
         inkscape:connector-curvature="0" /><g
         transform="matrix(0.0142878,0,0,0.0142878,15.59235,17.095121)"
         id="g1579"
         style="fill:#ff9900;fill-opacity:1"><path
           style="fill:#ff9900;fill-opacity:1"
           d="M 270.265,149.448 C 234.158,102.324 199.885,70.5 196.826,8.076 c 0,-1.836 -0.612,-3.06 -1.836,-4.284 -0.612,-3.06 -3.672,-4.896 -6.732,-3.06 -3.672,0 -6.731,2.448 -6.731,6.732 -77.112,83.232 -207.468,294.372 -43.452,354.959 74.052,27.541 157.896,-9.791 172.584,-90.576 7.955,-43.451 -14.69,-89.35 -40.394,-122.399 z M 138.686,323.256 c -17.748,-10.404 -28.764,-31.211 -34.272,-49.572 -2.448,-9.18 -3.672,-18.359 -3.06,-27.539 3.672,-15.912 8.568,-31.213 14.076,-46.512 3.06,13.463 9.18,26.928 17.748,36.719 19.584,21.422 59.364,34.273 70.38,61.201 6.732,16.523 -19.584,30.6 -30.6,34.271 -11.628,3.672 -24.481,-2.447 -34.272,-8.568 z"
           id="path1577"
           inkscape:connector-curvature="0" /></g></g></g></svg>