<?xml version="1.0" encoding="UTF-8" standalone="no"?>
<!-- Generator: Adobe Illustrator 16.0.0, SVG Export Plug-In . SVG Version: 6.00 Build 0)  -->

<svg
   xmlns:dc="http://purl.org/dc/elements/1.1/"
   xmlns:cc="http://creativecommons.org/ns#"
   xmlns:rdf="http://www.w3.org/1999/02/22-rdf-syntax-ns#"
   xmlns:svg="http://www.w3.org/2000/svg"
   xmlns="http://www.w3.org/2000/svg"
   xmlns:sodipodi="http://sodipodi.sourceforge.net/DTD/sodipodi-0.dtd"
   xmlns:inkscape="http://www.inkscape.org/namespaces/inkscape"
   version="1.1"
   id="Capa_1"
   x="0px"
   y="0px"
   width="512px"
   height="512px"
   viewBox="0 0 371.409 371.409"
   style="enable-background:new 0 0 371.409 371.409;"
   xml:space="preserve"
   sodipodi:docname="water-drop-2.svg"
   inkscape:version="0.92.1 r15371"><metadata
     id="metadata49"><rdf:RDF><cc:Work
         rdf:about=""><dc:format>image/svg+xml</dc:format><dc:type
           rdf:resource="http://purl.org/dc/dcmitype/StillImage" /><dc:title></dc:title></cc:Work></rdf:RDF></metadata><defs
     id="defs47" /><sodipodi:namedview
     pagecolor="#ffffff"
     bordercolor="#666666"
     borderopacity="1"
     objecttolerance="10"
     gridtolerance="10"
     guidetolerance="10"
     inkscape:pageopacity="0"
     inkscape:pageshadow="2"
     inkscape:window-width="1920"
     inkscape:window-height="986"
     id="namedview45"
     showgrid="false"
     inkscape:zoom="1.4902344"
     inkscape:cx="256"
     inkscape:cy="271.43381"
     inkscape:window-x="-11"
     inkscape:window-y="-11"
     inkscape:window-maximized="1"
     inkscape:current-layer="Capa_1" /><g
     id="g12"
     style="fill:#ffcc00"><path
       d="M270.265,149.448c-36.107-47.124-70.38-78.948-73.439-141.372c0-1.836-0.612-3.06-1.836-4.284   c-0.612-3.06-3.672-4.896-6.732-3.06c-3.672,0-6.731,2.448-6.731,6.732c-77.112,83.232-207.468,294.372-43.452,354.959   c74.052,27.541,157.896-9.791,172.584-90.576C318.614,228.396,295.969,182.497,270.265,149.448z M138.686,323.256   c-17.748-10.404-28.764-31.211-34.272-49.572c-2.448-9.18-3.672-18.359-3.06-27.539c3.672-15.912,8.568-31.213,14.076-46.512   c3.06,13.463,9.18,26.928,17.748,36.719c19.584,21.422,59.364,34.273,70.38,61.201c6.732,16.523-19.584,30.6-30.6,34.271   C161.33,335.496,148.477,329.377,138.686,323.256z"
       fill="#f08300"
       id="path10"
       style="fill:#ffcc00" /></g><g
     id="g14" /><g
     id="g16" /><g
     id="g18" /><g
     id="g20" /><g
     id="g22" /><g
     id="g24" /><g
     id="g26" /><g
     id="g28" /><g
     id="g30" /><g
     id="g32" /><g
     id="g34" /><g
     id="g36" /><g
     id="g38" /><g
     id="g40" /><g
     id="g42" /></svg>